<svg version="1.1" xmlns="http://www.w3.org/2000/svg" width="593px" height="219px" style=""><path fill="#3a85b0" d="M102.805,184.432c0,1.43-0.715,2.288-2.574,2.288l-12.727,0c-3.003,0-4.004-1.144-4.862-3.432l-7.436-21.021l-36.179,0l-7.436,21.45c-0.572,1.859-1.573,3.003-3.861,3.003l-12.727,0c-1.43,0-2.002-0.715-2.002-1.859c0-0.429,0-1.001,0.286-1.573l34.892-92.664c0.715-1.716,1.716-2.86,3.861-2.86l11.44,0c2.145,0,3.432,1.001,4.004,2.574l35.035,92.235c0.286,0.715,0.286,1.287,0.286,1.859z M70.344,148.396l-10.153-30.173c-1.287-4.004-2.145-7.007-2.86-9.295l-0.286,0c-0.715,2.431-1.573,5.434-3.003,9.438l-10.153,30.03l26.455,0z M161.3635,96.773c0,2.288-1.001,3.003-3.003,3.003l-8.151,0l0,74.932l7.722,0c2.002,0,3.003,1.287,3.003,3.003l0,6.149c0,1.716-0.715,2.86-2.574,2.86l-34.034,0c-1.859,0-2.86-1.144-2.86-2.717l0-6.435c0-2.002,0.858-2.86,2.86-2.86l7.579,0l0-74.932l-8.294,0c-2.002,0-2.86-1.001-2.86-2.86l0-6.292c0-1.573,0.858-2.86,2.574-2.86l35.035,0c2.002,0,3.003,1.287,3.003,2.717l0,6.292z M214.488,153.401c0,2.717-0.858,3.861-3.575,3.861l-24.024,0c-2.717,0-3.432-1.43-3.432-3.718l0-9.295c0-2.431,0.715-3.432,3.289-3.432l24.024,0c2.86,0,3.718,1.001,3.718,3.575l0,9.009z M315.5175,183.145c0,2.574-1.001,3.575-3.432,3.575l-11.297,0c-2.574,0-3.718-1.001-3.718-3.575l0-39.897l-40.612,0l0,39.897c0,2.574-1.144,3.575-3.575,3.575l-11.154,0c-2.574,0-3.861-1.001-3.861-3.575l0-91.949c0-2.431,1.573-3.432,3.861-3.432l11.154,0c2.288,0,3.575,0.858,3.575,3.432l0,37.323l40.612,0l0-37.323c0-2.431,1.43-3.432,3.718-3.432l11.297,0c2.288,0,3.432,0.858,3.432,3.432l0,91.949z M383.8,96.773c0,2.288-1.001,3.003-3.003,3.003l-8.151,0l0,74.932l7.722,0c2.002,0,3.003,1.287,3.003,3.003l0,6.149c0,1.716-0.715,2.86-2.574,2.86l-34.034,0c-1.859,0-2.86-1.144-2.86-2.717l0-6.435c0-2.002,0.858-2.86,2.86-2.86l7.579,0l0-74.932l-8.294,0c-2.002,0-2.86-1.001-2.86-2.86l0-6.292c0-1.573,0.858-2.86,2.574-2.86l35.035,0c2.002,0,3.003,1.287,3.003,2.717l0,6.292z M482.1125,185.004c0,1.144-0.858,1.716-2.145,1.716l-13.013,0c-2.574,0-4.29-0.715-5.577-2.86l-20.592-33.605l-11.011,0l0,32.89c0,2.145-0.858,3.575-3.289,3.575l-11.726,0c-2.431,0-3.432-1.144-3.432-3.575l0-91.234c0-3.146,0.715-4.147,3.861-4.147l21.164,0c12.441,0,25.597,1.859,33.176,10.582c4.576,5.291,6.864,12.298,6.864,20.02c0,13.156-7.007,23.452-18.447,28.457l23.452,36.179c0.429,0.715,0.715,1.43,0.715,2.002z M457.6595,118.652c0-12.441-8.294-16.874-20.735-16.874l-7.15,0l0,34.606l8.866,0c11.44,0,19.019-6.149,19.019-17.732z M564.838,183.288c0,2.288-1.001,3.432-3.432,3.432l-53.053,0c-2.86,0-3.861-0.715-3.861-3.861l0-91.52c0-2.288,1.001-3.575,3.289-3.575l53.911,0c2.288,0,3.003,0.858,3.003,2.431l0,0.858l-1.001,8.58c-0.286,2.574-1.859,3.003-4.862,3.003l-35.893,0l0,25.883l33.033,0c2.717,0,3.575,1.144,3.575,3.146l0,8.151c0,2.431-1.001,3.432-3.432,3.432l-33.176,0l0,28.6l38.324,0c2.431,0,3.575,1.001,3.575,3.289l0,8.151z"/><path fill="#3b5466" d=""/></svg>
